G04 Layer: TopLayer*
G04 EasyEDA v6.4.19.5, 2021-04-12T03:21:25--4:00*
G04 ad942acca2a341ffa4797dcae338b01a,05d11dc960ce418289d66d82dd1de79a,10*
G04 Gerber Generator version 0.2*
G04 Scale: 100 percent, Rotated: No, Reflected: No *
G04 Dimensions in millimeters *
G04 leading zeros omitted , absolute positions ,4 integer and 5 decimal *
%FSLAX45Y45*%
%MOMM*%

%ADD11C,0.2600*%
%ADD12R,1.0000X1.0000*%
%ADD16R,1.8161X1.3589*%
%ADD17R,1.3589X1.8161*%
%ADD19R,1.1000X1.0000*%
%ADD20C,1.5240*%

%LPD*%
D11*
X1750060Y5427471D02*
G01*
X1750060Y5531612D01*
X2641600Y5447537D02*
G01*
X2641600Y5578855D01*
X2615945Y5604510D01*
X2328925Y5604510D01*
X2234691Y5510276D01*
X1993645Y5510276D01*
X1972563Y5531612D01*
X1750060Y5531612D01*
X2436875Y4597400D02*
G01*
X2436875Y4704079D01*
X2498090Y5016500D02*
G01*
X2498090Y4765294D01*
X2436875Y4704079D01*
X1359915Y5427471D02*
G01*
X1359915Y5249163D01*
X1591563Y5017515D01*
X1591563Y4842255D01*
X1371600Y4622292D01*
X1371600Y4528565D01*
X1427987Y4472178D01*
X1626362Y4472178D01*
X1858263Y4704079D01*
X2436875Y4704079D01*
X4251959Y5255260D02*
G01*
X4251959Y5157978D01*
X2446527Y5447537D02*
G01*
X2446527Y5561837D01*
X4251959Y6029960D02*
G01*
X4251959Y5932678D01*
X4251959Y5255260D02*
G01*
X4251959Y5598160D01*
X4251959Y5598160D02*
G01*
X4251959Y5932678D01*
X2966211Y5207000D02*
G01*
X3045459Y5207000D01*
X2576575Y5504687D02*
G01*
X2576575Y5561837D01*
X2576575Y5504687D02*
G01*
X2576575Y5447537D01*
X2576575Y5333492D02*
G01*
X2760472Y5333492D01*
X2886963Y5207000D01*
X2576575Y5447537D02*
G01*
X2576575Y5333492D01*
X2236724Y4490720D02*
G01*
X2526284Y4490720D01*
X2886963Y4851400D01*
X2236724Y4597400D02*
G01*
X2236724Y4490720D01*
X2576575Y5561837D02*
G01*
X2446527Y5561837D01*
X3430777Y5316220D02*
G01*
X3430777Y5872479D01*
X3512058Y5953760D01*
X3430777Y5316220D02*
G01*
X3154679Y5316220D01*
X3045459Y5207000D01*
X4164584Y4769357D02*
G01*
X3572256Y4769357D01*
X3558540Y4782820D01*
X3558540Y5188457D01*
X3430777Y5316220D01*
X4164584Y3076702D02*
G01*
X4164584Y4769357D01*
X4164584Y4769357D02*
G01*
X4164584Y5070602D01*
X4251959Y5157978D01*
X3609340Y5953760D02*
G01*
X3512058Y5953760D01*
X2095500Y5634989D02*
G01*
X2095500Y5673852D01*
X2095500Y5673852D02*
G01*
X2095500Y5714237D01*
X1554987Y6027673D02*
G01*
X1554987Y5923534D01*
X1804670Y5673852D01*
X2095500Y5673852D01*
X1485900Y4919726D02*
G01*
X1294892Y5110734D01*
X1294892Y5427471D01*
X1485900Y4919726D02*
G01*
X1326895Y4760721D01*
X1326895Y4495800D01*
X1392681Y4429760D01*
X2176018Y4429760D01*
X2236724Y4490720D01*
X2966211Y4851400D02*
G01*
X2886963Y4851400D01*
X2926588Y5207000D02*
G01*
X2886963Y5207000D01*
X4072381Y3076702D02*
G01*
X4164584Y3076702D01*
X4072381Y3076702D02*
G01*
X3980434Y3076702D01*
X3796029Y3076702D02*
G01*
X2966211Y3906520D01*
X2966211Y4851400D01*
X3980434Y3076702D02*
G01*
X3796029Y3076702D01*
X2966211Y5207000D02*
G01*
X2926588Y5207000D01*
X2095500Y5714237D02*
G01*
X2180843Y5714237D01*
X2251709Y5785104D01*
X2251709Y5785104D02*
G01*
X2251709Y6019800D01*
X2926588Y5207000D02*
G01*
X2926588Y5510276D01*
X2693670Y5742939D01*
X2294127Y5742939D01*
X2251709Y5785104D01*
X2058161Y5016500D02*
G01*
X2058161Y5145531D01*
X1880107Y5323586D01*
X3609340Y5626100D02*
G01*
X3609340Y5314695D01*
X3638041Y5286247D01*
X3638041Y5207000D02*
G01*
X3638041Y5286247D01*
X3924300Y5286247D02*
G01*
X3638041Y5286247D01*
X3924300Y5286247D02*
G01*
X3924300Y5255260D01*
X2836672Y5447537D02*
G01*
X2836672Y5504687D01*
X2771647Y5447537D02*
G01*
X2771647Y5504687D01*
X2706624Y5447537D02*
G01*
X2706624Y5561837D01*
X1880107Y5427471D02*
G01*
X1880107Y5375655D01*
X1880107Y5346954D02*
G01*
X1880107Y5323586D01*
X1880107Y5375655D02*
G01*
X1880107Y5346954D01*
X1815084Y5427471D02*
G01*
X1815084Y5334254D01*
X1880107Y5346954D02*
G01*
X1867154Y5334254D01*
X1815084Y5334254D01*
X1489963Y6027673D02*
G01*
X1489963Y5923787D01*
X1489963Y6027673D02*
G01*
X1489963Y6131813D01*
X1750060Y6131813D02*
G01*
X1489963Y6131813D01*
X1750060Y6027673D02*
G01*
X1750060Y6131813D01*
X1750060Y6027673D02*
G01*
X1765807Y6011926D01*
X1765807Y5941060D01*
X1782826Y5923787D01*
X1853437Y5923787D01*
X1880107Y5950457D01*
X1880107Y6027673D01*
X1880107Y6131813D02*
G01*
X1966975Y6218681D01*
X2610358Y6218681D01*
X2706624Y6122415D01*
X2706624Y6007607D01*
X1880107Y6027673D02*
G01*
X1880107Y6131813D01*
X1685036Y5427471D02*
G01*
X1685036Y5323586D01*
X1685036Y5323586D02*
G01*
X1619757Y5323586D01*
X1815084Y5334254D02*
G01*
X1804415Y5323586D01*
X1685036Y5323586D01*
X1619757Y5427471D02*
G01*
X1619757Y5386070D01*
X1619757Y5386070D02*
G01*
X1619757Y5323586D01*
X1619757Y5386070D02*
G01*
X1619757Y5354828D01*
X1588515Y5323586D01*
X1554987Y5323586D01*
X1554987Y5427471D02*
G01*
X1554987Y5323586D01*
X2097786Y5016500D02*
G01*
X2058161Y5016500D01*
X2097786Y5016500D02*
G01*
X2137409Y5016500D01*
X2216658Y5016500D02*
G01*
X2300986Y5100828D01*
X2573781Y5100828D01*
X2578861Y5095747D01*
X2578861Y5016500D01*
X2137409Y5016500D02*
G01*
X2216658Y5016500D01*
X2658109Y5016500D02*
G01*
X2578861Y5016500D01*
X3638041Y4851400D02*
G01*
X3638041Y5207000D01*
X3924300Y5286247D02*
G01*
X3924300Y5598160D01*
X3924300Y5598160D02*
G01*
X3924300Y6002020D01*
X3896613Y6029960D01*
X3924300Y6029960D02*
G01*
X3896613Y6029960D01*
X3896613Y6029960D02*
G01*
X3804158Y6029960D01*
X1489963Y5427471D02*
G01*
X1554987Y5427471D01*
X1489963Y5427471D02*
G01*
X1489963Y5922771D01*
X1489455Y5923279D01*
X1489963Y5923787D02*
G01*
X1489455Y5923279D01*
X1489455Y5923279D02*
G01*
X1424939Y5923279D01*
X2706624Y6007607D02*
G01*
X2706624Y5903976D01*
X2771647Y6007607D02*
G01*
X2771647Y5903976D01*
X3804158Y6029960D02*
G01*
X3760470Y6073902D01*
X3490975Y6073902D01*
X3372358Y5955029D01*
X2771647Y5903976D02*
G01*
X2782061Y5893562D01*
X2868675Y5893562D01*
X3049015Y6073902D01*
X3253486Y6073902D01*
X3372358Y5955029D01*
X3372358Y5955029D02*
G01*
X3372358Y5710936D01*
X3274822Y5613400D01*
X3177540Y5613400D02*
G01*
X3274822Y5613400D01*
X2706624Y5903976D02*
G01*
X2771647Y5903976D01*
X1424939Y6027165D02*
G01*
X1424939Y5975350D01*
X1359915Y6027165D02*
G01*
X1359915Y5923279D01*
X1424939Y5946647D02*
G01*
X1424939Y5923279D01*
X1424939Y5975350D02*
G01*
X1424939Y5946647D01*
X1424939Y5946647D02*
G01*
X1401571Y5923279D01*
X1359915Y5923279D01*
X2446527Y6007607D02*
G01*
X2446527Y5883910D01*
X2545334Y5785104D01*
X2908554Y5785104D01*
X3080258Y5613400D01*
X3177540Y5613400D02*
G01*
X3080258Y5613400D01*
X2836672Y5504687D02*
G01*
X2771647Y5504687D01*
X1619757Y5427471D02*
G01*
X1619757Y5531612D01*
X2771647Y5504687D02*
G01*
X2771647Y5538470D01*
X2748279Y5561837D01*
X2706624Y5561837D01*
X2706624Y5561837D02*
G01*
X2706624Y5582665D01*
X2630677Y5658612D01*
X2312924Y5658612D01*
X2206752Y5552694D01*
X2024888Y5552694D01*
X2000250Y5577078D01*
X1722881Y5577078D01*
X1681479Y5535676D01*
X1681479Y5489194D01*
X1674368Y5482081D01*
X1674368Y5482081D01*
X1669034Y5487670D01*
X1669034Y5523992D01*
X1661413Y5531612D01*
X1619757Y5531612D01*
X1294892Y5923787D02*
G01*
X1295400Y5923279D01*
X1359915Y5923279D01*
X1294892Y6027673D02*
G01*
X1294892Y5923787D01*
X1359915Y6027165D02*
G01*
X1359915Y5923279D01*
X2091690Y6019800D02*
G01*
X2012441Y6019800D01*
X1685036Y6027673D02*
G01*
X1685036Y5923787D01*
X2641600Y6121907D02*
G01*
X2588006Y6175502D01*
X2163318Y6175502D01*
X2091690Y6104128D01*
X2641600Y6007607D02*
G01*
X2641600Y6121907D01*
X2091690Y6019800D02*
G01*
X2091690Y6104128D01*
X2012441Y6019800D02*
G01*
X1874265Y5881623D01*
X1765300Y5881623D01*
X1723136Y5923787D01*
X1723136Y5923787D01*
X1685036Y5923787D01*
X3177540Y5941060D02*
G01*
X3080258Y5941060D01*
X3080258Y5941060D02*
G01*
X2981959Y5842762D01*
X2562352Y5842762D01*
X2511552Y5893562D01*
X2511552Y6007607D02*
G01*
X2511552Y5893562D01*
X2095500Y5795010D02*
G01*
X1749044Y5795010D01*
X1620012Y5923787D01*
X1620012Y6027673D02*
G01*
X1620012Y5923787D01*
X2576575Y6121907D02*
G01*
X2201925Y6121907D01*
X2172461Y6092444D01*
X2172461Y5951220D01*
X2095500Y5874257D01*
X2576575Y6007607D02*
G01*
X2576575Y6121907D01*
X2095500Y5795010D02*
G01*
X2095500Y5874257D01*
X1977390Y5016500D02*
G01*
X1898142Y5016500D01*
X1898142Y5016500D02*
G01*
X1830831Y4949189D01*
X1485900Y4579873D02*
G01*
X1830831Y4924805D01*
X1830831Y4949189D01*
X1830831Y4949189D02*
G01*
X1456436Y5323586D01*
X1424939Y5323586D01*
X1424939Y5427471D02*
G01*
X1424939Y5323586D01*
X3980434Y3346704D02*
G01*
X3980434Y3485895D01*
X3980434Y3485895D02*
G01*
X3398011Y4068318D01*
X3398011Y4851400D01*
X3206241Y5029200D02*
G01*
X3398011Y5029200D01*
X3206241Y4851400D02*
G01*
X3206241Y5029200D01*
X3398011Y4851400D02*
G01*
X3398011Y5029200D01*
X3398011Y5029200D02*
G01*
X3398011Y5207000D01*
X3206241Y5118607D02*
G01*
X2719577Y5118607D01*
X2511552Y5326634D01*
X2511552Y5447537D01*
X3206241Y5029200D02*
G01*
X3206241Y5118607D01*
X3206241Y5118607D02*
G01*
X3206241Y5207000D01*
X2836672Y6007607D02*
G01*
X2836672Y6121907D01*
X1815084Y6027673D02*
G01*
X1815084Y6131813D01*
X1815084Y6131813D02*
G01*
X1944115Y6260845D01*
X2697734Y6260845D01*
X2836672Y6121907D01*
D12*
G01*
X3637892Y5207000D03*
G01*
X3397912Y5207000D03*
G01*
X3206092Y5207000D03*
G01*
X2966112Y5207000D03*
G01*
X3206092Y4851400D03*
G01*
X2966112Y4851400D03*
G01*
X3637892Y4851400D03*
G01*
X3397912Y4851400D03*
G36*
X1534998Y5502287D02*
G01*
X1574977Y5502287D01*
X1574977Y5352935D01*
X1534998Y5352935D01*
G37*
G36*
X1599869Y5502287D02*
G01*
X1639849Y5502287D01*
X1639849Y5352935D01*
X1599869Y5352935D01*
G37*
G36*
X1664995Y5502287D02*
G01*
X1704975Y5502287D01*
X1704975Y5352935D01*
X1664995Y5352935D01*
G37*
G36*
X1729994Y5502287D02*
G01*
X1769973Y5502287D01*
X1769973Y5352935D01*
X1729994Y5352935D01*
G37*
G36*
X1340027Y6101981D02*
G01*
X1380007Y6101981D01*
X1380007Y5952629D01*
X1340027Y5952629D01*
G37*
G36*
X1340002Y5502287D02*
G01*
X1380007Y5502287D01*
X1380007Y5352935D01*
X1340002Y5352935D01*
G37*
G36*
X1405001Y5502287D02*
G01*
X1445005Y5502287D01*
X1445005Y5352935D01*
X1405001Y5352935D01*
G37*
G36*
X1469999Y5502287D02*
G01*
X1510004Y5502287D01*
X1510004Y5352935D01*
X1469999Y5352935D01*
G37*
G36*
X1794992Y6102489D02*
G01*
X1834997Y6102489D01*
X1834997Y5953137D01*
X1794992Y5953137D01*
G37*
G36*
X1729994Y6102489D02*
G01*
X1769998Y6102489D01*
X1769998Y5953137D01*
X1729994Y5953137D01*
G37*
G36*
X1664995Y6102489D02*
G01*
X1705000Y6102489D01*
X1705000Y5953137D01*
X1664995Y5953137D01*
G37*
G36*
X1599996Y6102489D02*
G01*
X1640001Y6102489D01*
X1640001Y5953137D01*
X1599996Y5953137D01*
G37*
G36*
X1534998Y6102489D02*
G01*
X1575003Y6102489D01*
X1575003Y5953137D01*
X1534998Y5953137D01*
G37*
G36*
X1469999Y6102489D02*
G01*
X1510004Y6102489D01*
X1510004Y5953137D01*
X1469999Y5953137D01*
G37*
G36*
X1794992Y5502287D02*
G01*
X1834972Y5502287D01*
X1834972Y5352935D01*
X1794992Y5352935D01*
G37*
G36*
X1405001Y6101981D02*
G01*
X1445005Y6101981D01*
X1445005Y5952629D01*
X1405001Y5952629D01*
G37*
G36*
X1275003Y5502262D02*
G01*
X1314983Y5502262D01*
X1314983Y5352910D01*
X1275003Y5352910D01*
G37*
G36*
X1859991Y5502287D02*
G01*
X1899970Y5502287D01*
X1899970Y5352935D01*
X1859991Y5352935D01*
G37*
G36*
X1859991Y6102489D02*
G01*
X1899996Y6102489D01*
X1899996Y5953137D01*
X1859991Y5953137D01*
G37*
G36*
X1275003Y6102489D02*
G01*
X1314983Y6102489D01*
X1314983Y5953137D01*
X1275003Y5953137D01*
G37*
G36*
X2386799Y4674900D02*
G01*
X2486799Y4674900D01*
X2486799Y4519899D01*
X2386799Y4519899D01*
G37*
G36*
X2186800Y4674900D02*
G01*
X2286800Y4674900D01*
X2286800Y4519899D01*
X2186800Y4519899D01*
G37*
G36*
X2426604Y5532691D02*
G01*
X2466604Y5532691D01*
X2466604Y5362689D01*
X2426604Y5362689D01*
G37*
G36*
X2491602Y5532691D02*
G01*
X2531602Y5532691D01*
X2531602Y5362689D01*
X2491602Y5362689D01*
G37*
G36*
X2556601Y5532691D02*
G01*
X2596601Y5532691D01*
X2596601Y5362689D01*
X2556601Y5362689D01*
G37*
G36*
X2621600Y5532691D02*
G01*
X2661599Y5532691D01*
X2661599Y5362689D01*
X2621600Y5362689D01*
G37*
G36*
X2686598Y5532691D02*
G01*
X2726598Y5532691D01*
X2726598Y5362689D01*
X2686598Y5362689D01*
G37*
G36*
X2751597Y5532691D02*
G01*
X2791597Y5532691D01*
X2791597Y5362689D01*
X2751597Y5362689D01*
G37*
G36*
X2816595Y5532691D02*
G01*
X2856595Y5532691D01*
X2856595Y5362689D01*
X2816595Y5362689D01*
G37*
G36*
X2816595Y6092710D02*
G01*
X2856595Y6092710D01*
X2856595Y5922708D01*
X2816595Y5922708D01*
G37*
G36*
X2751597Y6092710D02*
G01*
X2791597Y6092710D01*
X2791597Y5922708D01*
X2751597Y5922708D01*
G37*
G36*
X2686598Y6092710D02*
G01*
X2726598Y6092710D01*
X2726598Y5922708D01*
X2686598Y5922708D01*
G37*
G36*
X2621600Y6092710D02*
G01*
X2661599Y6092710D01*
X2661599Y5922708D01*
X2621600Y5922708D01*
G37*
G36*
X2556601Y6092710D02*
G01*
X2596601Y6092710D01*
X2596601Y5922708D01*
X2556601Y5922708D01*
G37*
G36*
X2491602Y6092710D02*
G01*
X2531602Y6092710D01*
X2531602Y5922708D01*
X2491602Y5922708D01*
G37*
G36*
X2426604Y6092710D02*
G01*
X2466604Y6092710D01*
X2466604Y5922708D01*
X2426604Y5922708D01*
G37*
D16*
G01*
X3924300Y6029960D03*
G01*
X4251959Y6029960D03*
G01*
X3924300Y5255260D03*
G01*
X4251959Y5255260D03*
D17*
G01*
X3609340Y5626100D03*
G01*
X3609340Y5953760D03*
G01*
X3177540Y5613400D03*
G01*
X3177540Y5941060D03*
D16*
G01*
X3924300Y5598160D03*
G01*
X4251959Y5598160D03*
G36*
X2201707Y6074801D02*
G01*
X2301707Y6074801D01*
X2301707Y5964798D01*
X2201707Y5964798D01*
G37*
G36*
X2041707Y6074801D02*
G01*
X2141707Y6074801D01*
X2141707Y5964798D01*
X2041707Y5964798D01*
G37*
D19*
G01*
X2095500Y5635005D03*
G01*
X2095500Y5794999D03*
G36*
X2608107Y5071501D02*
G01*
X2708107Y5071501D01*
X2708107Y4961498D01*
X2608107Y4961498D01*
G37*
G36*
X2448107Y5071501D02*
G01*
X2548107Y5071501D01*
X2548107Y4961498D01*
X2448107Y4961498D01*
G37*
G36*
X2087407Y5071501D02*
G01*
X2187407Y5071501D01*
X2187407Y4961498D01*
X2087407Y4961498D01*
G37*
G36*
X1927407Y5071501D02*
G01*
X2027407Y5071501D01*
X2027407Y4961498D01*
X1927407Y4961498D01*
G37*
G36*
X3825290Y2966593D02*
G01*
X3825290Y3186607D01*
X4135297Y3186607D01*
X4135297Y2966593D01*
G37*
G36*
X3825290Y3236595D02*
G01*
X3825290Y3456609D01*
X4135297Y3456609D01*
X4135297Y3236595D01*
G37*
D20*
G01*
X1485900Y4579797D03*
G01*
X1485900Y4919802D03*
M02*
