G04 Layer: TopPasteMaskLayer*
G04 EasyEDA v6.4.19.5, 2021-04-12T03:21:25--4:00*
G04 ad942acca2a341ffa4797dcae338b01a,05d11dc960ce418289d66d82dd1de79a,10*
G04 Gerber Generator version 0.2*
G04 Scale: 100 percent, Rotated: No, Reflected: No *
G04 Dimensions in millimeters *
G04 leading zeros omitted , absolute positions ,4 integer and 5 decimal *
%FSLAX45Y45*%
%MOMM*%

%ADD12R,1.0000X1.0000*%
%ADD16R,1.8161X1.3589*%
%ADD17R,1.3589X1.8161*%
%ADD19R,1.1000X1.0000*%

%LPD*%
D12*
G01*
X3637892Y5207000D03*
G01*
X3397912Y5207000D03*
G01*
X3206092Y5207000D03*
G01*
X2966112Y5207000D03*
G01*
X3206092Y4851400D03*
G01*
X2966112Y4851400D03*
G01*
X3637892Y4851400D03*
G01*
X3397912Y4851400D03*
G36*
X1534998Y5502287D02*
G01*
X1574977Y5502287D01*
X1574977Y5352935D01*
X1534998Y5352935D01*
G37*
G36*
X1599869Y5502287D02*
G01*
X1639849Y5502287D01*
X1639849Y5352935D01*
X1599869Y5352935D01*
G37*
G36*
X1664995Y5502287D02*
G01*
X1704975Y5502287D01*
X1704975Y5352935D01*
X1664995Y5352935D01*
G37*
G36*
X1729994Y5502287D02*
G01*
X1769973Y5502287D01*
X1769973Y5352935D01*
X1729994Y5352935D01*
G37*
G36*
X1340027Y6101981D02*
G01*
X1380007Y6101981D01*
X1380007Y5952629D01*
X1340027Y5952629D01*
G37*
G36*
X1340002Y5502287D02*
G01*
X1380007Y5502287D01*
X1380007Y5352935D01*
X1340002Y5352935D01*
G37*
G36*
X1405001Y5502287D02*
G01*
X1445005Y5502287D01*
X1445005Y5352935D01*
X1405001Y5352935D01*
G37*
G36*
X1469999Y5502287D02*
G01*
X1510004Y5502287D01*
X1510004Y5352935D01*
X1469999Y5352935D01*
G37*
G36*
X1794992Y6102489D02*
G01*
X1834997Y6102489D01*
X1834997Y5953137D01*
X1794992Y5953137D01*
G37*
G36*
X1729994Y6102489D02*
G01*
X1769998Y6102489D01*
X1769998Y5953137D01*
X1729994Y5953137D01*
G37*
G36*
X1664995Y6102489D02*
G01*
X1705000Y6102489D01*
X1705000Y5953137D01*
X1664995Y5953137D01*
G37*
G36*
X1599996Y6102489D02*
G01*
X1640001Y6102489D01*
X1640001Y5953137D01*
X1599996Y5953137D01*
G37*
G36*
X1534998Y6102489D02*
G01*
X1575003Y6102489D01*
X1575003Y5953137D01*
X1534998Y5953137D01*
G37*
G36*
X1469999Y6102489D02*
G01*
X1510004Y6102489D01*
X1510004Y5953137D01*
X1469999Y5953137D01*
G37*
G36*
X1794992Y5502287D02*
G01*
X1834972Y5502287D01*
X1834972Y5352935D01*
X1794992Y5352935D01*
G37*
G36*
X1405001Y6101981D02*
G01*
X1445005Y6101981D01*
X1445005Y5952629D01*
X1405001Y5952629D01*
G37*
G36*
X1275003Y5502262D02*
G01*
X1314983Y5502262D01*
X1314983Y5352910D01*
X1275003Y5352910D01*
G37*
G36*
X1859991Y5502287D02*
G01*
X1899970Y5502287D01*
X1899970Y5352935D01*
X1859991Y5352935D01*
G37*
G36*
X1859991Y6102489D02*
G01*
X1899996Y6102489D01*
X1899996Y5953137D01*
X1859991Y5953137D01*
G37*
G36*
X1275003Y6102489D02*
G01*
X1314983Y6102489D01*
X1314983Y5953137D01*
X1275003Y5953137D01*
G37*
G36*
X2386799Y4674900D02*
G01*
X2486799Y4674900D01*
X2486799Y4519899D01*
X2386799Y4519899D01*
G37*
G36*
X2186800Y4674900D02*
G01*
X2286800Y4674900D01*
X2286800Y4519899D01*
X2186800Y4519899D01*
G37*
G36*
X2426604Y5532691D02*
G01*
X2466604Y5532691D01*
X2466604Y5362689D01*
X2426604Y5362689D01*
G37*
G36*
X2491602Y5532691D02*
G01*
X2531602Y5532691D01*
X2531602Y5362689D01*
X2491602Y5362689D01*
G37*
G36*
X2556601Y5532691D02*
G01*
X2596601Y5532691D01*
X2596601Y5362689D01*
X2556601Y5362689D01*
G37*
G36*
X2621600Y5532691D02*
G01*
X2661599Y5532691D01*
X2661599Y5362689D01*
X2621600Y5362689D01*
G37*
G36*
X2686598Y5532691D02*
G01*
X2726598Y5532691D01*
X2726598Y5362689D01*
X2686598Y5362689D01*
G37*
G36*
X2751597Y5532691D02*
G01*
X2791597Y5532691D01*
X2791597Y5362689D01*
X2751597Y5362689D01*
G37*
G36*
X2816595Y5532691D02*
G01*
X2856595Y5532691D01*
X2856595Y5362689D01*
X2816595Y5362689D01*
G37*
G36*
X2816595Y6092710D02*
G01*
X2856595Y6092710D01*
X2856595Y5922708D01*
X2816595Y5922708D01*
G37*
G36*
X2751597Y6092710D02*
G01*
X2791597Y6092710D01*
X2791597Y5922708D01*
X2751597Y5922708D01*
G37*
G36*
X2686598Y6092710D02*
G01*
X2726598Y6092710D01*
X2726598Y5922708D01*
X2686598Y5922708D01*
G37*
G36*
X2621600Y6092710D02*
G01*
X2661599Y6092710D01*
X2661599Y5922708D01*
X2621600Y5922708D01*
G37*
G36*
X2556601Y6092710D02*
G01*
X2596601Y6092710D01*
X2596601Y5922708D01*
X2556601Y5922708D01*
G37*
G36*
X2491602Y6092710D02*
G01*
X2531602Y6092710D01*
X2531602Y5922708D01*
X2491602Y5922708D01*
G37*
G36*
X2426604Y6092710D02*
G01*
X2466604Y6092710D01*
X2466604Y5922708D01*
X2426604Y5922708D01*
G37*
D16*
G01*
X3924300Y6029960D03*
G01*
X4251959Y6029960D03*
G01*
X3924300Y5255260D03*
G01*
X4251959Y5255260D03*
D17*
G01*
X3609340Y5626100D03*
G01*
X3609340Y5953760D03*
G01*
X3177540Y5613400D03*
G01*
X3177540Y5941060D03*
D16*
G01*
X3924300Y5598160D03*
G01*
X4251959Y5598160D03*
G36*
X2201707Y6074801D02*
G01*
X2301707Y6074801D01*
X2301707Y5964798D01*
X2201707Y5964798D01*
G37*
G36*
X2041707Y6074801D02*
G01*
X2141707Y6074801D01*
X2141707Y5964798D01*
X2041707Y5964798D01*
G37*
D19*
G01*
X2095500Y5635005D03*
G01*
X2095500Y5794999D03*
G36*
X2608107Y5071501D02*
G01*
X2708107Y5071501D01*
X2708107Y4961498D01*
X2608107Y4961498D01*
G37*
G36*
X2448107Y5071501D02*
G01*
X2548107Y5071501D01*
X2548107Y4961498D01*
X2448107Y4961498D01*
G37*
G36*
X2087407Y5071501D02*
G01*
X2187407Y5071501D01*
X2187407Y4961498D01*
X2087407Y4961498D01*
G37*
G36*
X1927407Y5071501D02*
G01*
X2027407Y5071501D01*
X2027407Y4961498D01*
X1927407Y4961498D01*
G37*
G36*
X3825290Y2966593D02*
G01*
X3825290Y3186607D01*
X4135297Y3186607D01*
X4135297Y2966593D01*
G37*
G36*
X3825290Y3236595D02*
G01*
X3825290Y3456609D01*
X4135297Y3456609D01*
X4135297Y3236595D01*
G37*
M02*
